<?xml version="1.0" encoding="UTF-8" standalone="no"?>
<!-- Created with Inkscape (http://www.inkscape.org/) -->

<svg
   width="779.70215"
   height="735.48419"
   viewBox="0 0 206.29619 194.59686"
   version="1.1"
   id="svg1"
   inkscape:version="1.3.2 (091e20e, 2023-11-25, custom)"
   sodipodi:docname="intro_player.svg"
   xmlns:inkscape="http://www.inkscape.org/namespaces/inkscape"
   xmlns:sodipodi="http://sodipodi.sourceforge.net/DTD/sodipodi-0.dtd"
   xmlns="http://www.w3.org/2000/svg"
   xmlns:svg="http://www.w3.org/2000/svg">
  <sodipodi:namedview
     id="namedview1"
     pagecolor="#ffffff"
     bordercolor="#000000"
     borderopacity="0.25"
     inkscape:showpageshadow="2"
     inkscape:pageopacity="0.0"
     inkscape:pagecheckerboard="0"
     inkscape:deskcolor="#d1d1d1"
     inkscape:document-units="mm"
     inkscape:zoom="0.25606581"
     inkscape:cx="392.47724"
     inkscape:cy="540.87659"
     inkscape:window-width="1920"
     inkscape:window-height="1009"
     inkscape:window-x="-8"
     inkscape:window-y="-8"
     inkscape:window-maximized="1"
     inkscape:current-layer="layer1" />
  <defs
     id="defs1">
    <pattern
       id="EMFhbasepattern"
       patternUnits="userSpaceOnUse"
       width="6"
       height="6"
       x="0"
       y="0" />
    <pattern
       id="EMFhbasepattern-1"
       patternUnits="userSpaceOnUse"
       width="6"
       height="6"
       x="0"
       y="0" />
  </defs>
  <g
     inkscape:label="Capa 1"
     inkscape:groupmode="layer"
     id="layer1"
     transform="translate(-1.0462197,-5.2914246)">
    <path
       style="fill:#36422c;stroke-width:0.614798;fill-opacity:1"
       d="m 30.92286,198.24419 c -0.03922,-0.9043 -0.05509,-1.65999 -0.03523,-1.67932 0.0198,-0.0193 6.089742,-0.009 13.488707,0.0222 l 13.452668,0.0574 v 1.6219 1.6219 H 44.411567 30.994146 Z m 33.406764,-0.0352 5.5e-5,-1.67931 48.220531,0.0159 48.22053,0.0159 0.0799,1.6634 0.0798,1.6634 H 112.63001 64.329569 Z m 103.359226,-0.0616 v -1.74089 l 0.59589,0.0979 c 0.32773,0.0539 1.01029,0.10596 1.5168,0.11576 l 0.92091,0.0178 v 1.62515 1.62514 h -1.5168 -1.5168 z m -152.890113,-4.9583 c -0.04968,-0.0497 -0.09028,-1.59973 -0.09028,-3.44461 v -3.35431 l 1.657838,0.14014 c 0.911806,0.0771 40.50036,0.14014 87.974555,0.14014 h 86.31673 v 3.25029 3.25029 l -42.09128,0.004 c -23.1502,0.002 -62.698126,0.0267 -87.884279,0.0542 -25.186147,0.0274 -45.83363,0.009 -45.883281,-0.0404 z M 1.0572246,168.57721 V 156.9845 h 1.6251496 1.6251436 v -1.73349 -1.73349 h 1.7334893 1.7334894 v -1.62514 -1.62515 h 6.6089265 6.608926 l 0.03474,12.29694 c 0.01912,6.76331 0.04347,13.46704 0.05416,14.89717 l 0.01943,2.60023 -1.67932,0.0633 -1.679313,0.0633 v -5.10124 -5.10124 H 12.758261 7.7744781 v 4.95085 4.95085 l -2.3089092,0.14127 c -1.2699012,0.0777 -2.7812888,0.14127 -3.358639,0.14127 H 1.0572123 Z M 17.52537,160.23479 V 156.9845 H 14.275077 11.02479 v 1.57816 1.57814 L 9.3996401,160.091 7.7744965,160.0412 v 1.72192 1.72192 h 4.8754365 4.875437 z m 23.402102,14.81166 v -5.06078 h -3.250293 -3.250293 v 4.98378 4.98378 H 31.068253 27.70962 V 164.97407 149.9949 l 2.546061,0.13013 c 1.400331,0.0716 2.911718,0.13285 3.358633,0.13617 l 0.812572,0.006 v 6.60892 6.60893 h 3.250293 3.250293 v -6.71727 -6.71727 h 3.466979 3.466979 v 15.02648 15.02649 l -3.466979,0.002 -3.466979,0.002 z m 10.184245,-8.20854 v -13.32039 h 1.625149 1.625144 v -1.62514 -1.62515 h 6.717272 6.717265 v 1.62515 1.62514 h 1.62515 1.625143 v 13.33877 13.33876 l -3.358632,-0.0515 -3.358639,-0.0515 v -5.05324 -5.05324 H 60.96373 57.597886 l 0.02238,4.98137 0.02238,4.98136 -3.265435,0.10495 -3.265442,0.10495 z m 13.217852,-6.8198 v -3.25029 h -3.358633 -3.358633 v 3.25029 3.25029 h 3.358633 3.358633 z m 13.218362,18.47249 5.04e-4,-1.67932 -1.625654,0.0713 -1.625647,0.0713 v -13.34332 -13.34331 h 1.733489 1.733489 v 11.48436 11.48437 h 3.250287 3.250294 v -11.48437 -11.48436 h 1.743424 1.743418 l -0.03947,14.95134 -0.03947,14.95134 h -5.062593 -5.062594 z m 43.336419,-11.75683 3e-4,-13.3278 1.73349,0.0787 1.73349,0.0787 v -1.75643 -1.75644 h 5.00956 5.00956 l -0.10816,1.74918 -0.10815,1.74917 1.70803,-0.0699 1.70803,-0.0699 -5.1e-4,13.27203 -5.1e-4,13.27202 h -1.73349 -1.73349 v -4.98378 -4.98378 h -3.14195 -3.14195 v 4.97343 4.97344 l -3.46728,0.0645 -3.46727,0.0645 z m 13.21815,-6.60732 v -3.35863 h -3.14195 -3.14195 v 3.35863 3.35863 h 3.14195 3.14195 z m 9.35435,19.88146 -2.67173,-0.0683 0.0561,-14.82106 c 0.056,-14.78389 0.0572,-14.82137 0.50487,-14.94158 0.24681,-0.0663 1.69198,-0.12184 3.21149,-0.12347 l 2.76275,-0.003 v 11.59271 11.5927 l 5.1463,0.002 5.14629,0.002 0.0662,3.46512 0.0662,3.46511 -5.80835,-0.0469 c -3.19459,-0.0258 -7.01063,-0.0776 -8.48007,-0.11515 z m 17.49802,-1.08752 c -0.009,-0.6833 -0.0629,-6.67848 -0.11936,-13.32262 l -0.10264,-12.08025 h 1.7445 1.7445 v -1.62514 -1.62515 h 6.60893 6.60893 v 1.63418 1.63418 l 1.62514,-0.14726 1.62515,-0.14727 v 13.43263 13.43263 l -3.25029,-0.0178 -3.2503,-0.0179 v -5.04247 -5.04246 h -3.36584 -3.36584 l 0.0228,5.03795 0.0227,5.03795 -3.26586,0.0506 -3.26586,0.0506 z m 13.23456,-18.79394 v -3.35863 h -3.35863 -3.35864 v 3.24434 3.24434 l 3.08778,0.0666 c 1.69828,0.0367 3.20967,0.088 3.35864,0.11429 0.20709,0.0365 0.27085,-0.743 0.27085,-3.3109 z m -69.77293,8.34241 V 156.9845 h -3.35863 -3.358634 v -3.45358 -3.45358 l 9.859214,0.0301 9.85922,0.0301 v 3.42346 3.42346 h -3.25029 -3.25029 v 11.48437 11.48436 h -3.2503 -3.25029 z m 79.7017,9.48002 c -0.0382,-1.10239 -0.10286,-7.83049 -0.14358,-14.95134 l -0.074,-12.947 h 0.52979 c 0.29138,0 1.13522,0.0633 1.87518,0.14063 l 1.34539,0.14062 -0.0493,1.52034 -0.0493,1.52034 1.55262,-0.0503 1.55262,-0.0504 v 1.63968 1.63969 h 3.35864 3.35864 v -1.63929 -1.6393 l 1.65059,0.0482 1.6506,0.0482 0.0287,-1.55052 0.0287,-1.55052 3.30446,-3.3e-4 3.30447,-3.3e-4 v 14.843 14.843 h -3.37335 -3.37334 l 0.0689,-9.85932 0.0689,-9.85931 -1.67932,9e-5 -1.67931,1e-4 v 3.25029 3.25029 h -3.35864 -3.35864 v -3.31198 -3.31197 l -1.63461,-0.0571 -1.6346,-0.0571 0.0636,9.97812 0.0636,9.97812 -1.66395,-9e-5 -1.66393,-1.1e-4 z M 21.209034,145.22928 v -1.67932 H 56.203845 91.19865 v 1.67932 1.67932 H 56.203839 21.209034 Z m 83.353806,1.64416 c -0.0209,-0.0193 -0.006,-0.77502 0.0333,-1.67931 l 0.0713,-1.64417 h 4.51557 c 2.48357,0 4.66981,-0.0592 4.85832,-0.13153 0.29618,-0.11365 0.34276,0.12178 0.34276,1.73247 v 1.86398 l -4.89162,-0.0531 c -2.69039,-0.0292 -4.90872,-0.069 -4.92962,-0.0883 z m 86.09474,-6.79045 v -3.46698 h 5.20047 5.20046 v 1.84183 1.84183 h -1.73349 -1.73349 v 1.62514 1.62515 h -3.46697 -3.46698 z M 7.5578112,136.94103 v -3.35863 h 3.4669788 3.466972 v 3.35863 3.35864 H 11.02479 7.5578112 Z m 13.6512228,0 v -3.35863 h 14.843002 14.842995 v 3.35863 3.35864 H 36.052036 21.209034 Z m 36.619954,0 V 133.5824 H 81.122745 104.4165 v 3.35863 3.35864 H 81.122745 57.828988 Z m 53.304842,3.18911 c -3e-5,-0.0336 -0.0372,-1.52066 -0.0826,-3.30446 l -0.0826,-3.24328 h 38.21931 38.21932 v 1.62515 1.62514 h -1.62514 -1.62515 l 2e-5,1.67932 2e-5,1.67932 h -36.51157 c -20.08137,0 -36.51161,-0.0275 -36.51163,-0.0612 z M 1.1058919,126.96031 l 0.059697,-3.3718 13.2720281,0.0194 13.272022,0.0194 v -1.52303 -1.52304 h 1.733489 1.733489 v -1.73349 -1.73349 h 1.62515 1.625144 v -1.62514 -1.62515 h 1.625143 1.62515 l 0.03707,-1.24595 c 0.0613,-2.06007 0.06963,-2.11168 0.346229,-2.13977 0.146722,-0.0149 0.851815,-0.0393 1.56688,-0.0542 1.279707,-0.0267 1.300118,-0.0368 1.300118,-0.6469 0,-0.3409 0.06201,-1.07222 0.137795,-1.62515 l 0.137794,-1.00533 h 1.595695 1.595689 v -3.25029 -3.25029 H 42.66099 40.927501 v -3.358637 -3.358632 h -1.62515 -1.625143 v -3.250294 -3.250293 h -1.6059 -1.605901 l -0.09539,-1.354288 c -0.05244,-0.744858 -0.11102,-8.886837 -0.130109,-18.093289 L 34.205172,51.24175 h 1.73601 1.73601 V 47.883049 44.52441 h 1.625143 1.62515 V 41.274123 38.02383 h 1.733489 1.733489 v -3.141947 -3.141954 h 1.595689 1.595695 L 47.723641,30.7346 c 0.07579,-0.552931 0.137801,-1.333004 0.137801,-1.73349 v -0.72816 h 1.625143 1.625144 v -1.625143 -1.625144 h 1.616032 1.616032 l 0.06329,-1.66216 0.06329,-1.662161 1.570974,0.05152 1.570973,0.05158 V 20.053419 18.30539 h 1.73349 1.733489 v -1.625144 -1.62515 h 3.250287 3.250293 v -1.625143 -1.625144 h 3.466979 3.466978 l -1.9e-4,-1.679319 -1.91e-4,-1.6793196 4.875627,0.062082 4.875628,0.062082 V 6.9308806 5.2914246 l 15.113857,0.055578 c 8.312613,0.030555 16.656003,0.087018 18.540853,0.1254802 l 3.427,0.069927 -0.0494,1.5219498 -0.0494,1.5219439 4.80226,-0.023301 4.80227,-0.023301 v 1.6325945 1.632601 h 3.38232 3.38232 l -0.0821,1.625144 -0.0821,1.62515 h 3.43939 3.4394 l -0.0765,1.570973 -0.0766,1.570974 1.67932,0.06329 1.67932,0.06329 v 1.616026 1.616032 h 1.5168 1.5168 v 1.62515 1.625143 h 1.73349 1.73349 v 1.680924 1.680924 l 1.73349,-0.07873 1.73349,-0.07872 v 1.877641 1.877647 l 1.65975,-0.06704 1.65973,-0.06704 -0.0496,3.304463 -0.0496,3.304463 h 1.74851 1.74852 v 3.141948 3.141953 h 1.74408 1.74409 l -0.0648,3.358947 -0.0648,3.358946 1.57097,-3.13e-4 1.57098,-3.14e-4 V 69.33506 87.428349 h -1.51681 -1.5168 v 3.250293 3.250293 h -1.73349 -1.73348 v 3.250287 3.250298 h -1.739 -1.73899 l 0.0597,3.4128 0.0597,3.41281 h 1.57134 1.57136 l 0.0121,0.86674 c 0.0165,1.18027 0.2764,2.56196 0.47468,2.52345 0.0894,-0.0173 0.79632,-0.0315 1.57097,-0.0315 h 1.40846 v 1.62515 1.62514 h 1.73349 1.73349 v 1.62515 1.62514 h 1.62515 1.62514 v 1.74803 1.74803 l 1.57098,-0.0516 1.57097,-0.0516 0.0637,1.55387 0.0637,1.55387 h 13.16794 13.16795 l 0.0408,1.62514 0.0408,1.62515 h -1.51715 -1.51713 v 1.73349 1.73349 H 100.94402 1.0462197 Z M 71.04684,120.36455 v -3.2503 H 56.095499 41.144158 l 5.1e-4,1.67932 5.04e-4,1.67932 -1.733993,-0.0707 -1.734,-0.0707 v 1.64166 1.64164 H 54.36201 71.04684 Z m 19.935124,-0.10835 v -3.35863 h 11.592706 11.59271 v 3.35863 3.35864 h 8.34242 8.34241 v -1.70095 -1.70094 l -1.62515,0.10429 -1.62514,0.1043 v -4.90393 -4.90394 h -1.73349 -1.73349 v -4.98378 -4.98378 h -1.62514 -1.62515 v -5.092124 -5.092122 h -1.62515 -1.62515 v -4.875436 -4.875443 h -1.62514 -1.62514 V 77.352352 73.993719 H 102.68301 90.981964 v 3.358633 3.358633 h -1.733489 -1.733489 v 4.875443 4.875436 h -1.625144 -1.625149 v 5.092122 5.092124 h -1.625144 -1.62515 v 4.98378 4.98378 h -1.625143 -1.625144 v 4.76709 4.7671 h -1.733489 -1.733489 v 1.73349 1.73349 h 8.342415 8.342415 z m 0,-9.75087 v -3.35864 h 11.592706 11.59271 v 3.35864 3.35863 H 102.57467 90.981964 Z m 0.01144,-9.96756 -0.02699,-3.35864 h 11.600496 11.6005 v 3.35864 3.35863 H 102.59389 91.020389 Z m 0.205268,-9.904863 v -3.421336 h 11.484358 11.48437 v 3.48455 3.484543 l -11.48437,-0.06321 -11.484358,-0.06321 z m 11.430188,-6.617379 -8.179895,-0.05945 v -3.356033 -3.356026 h 8.234065 8.23408 v 3.466973 c 0,1.906844 -0.0243,3.443813 -0.0542,3.415495 -0.0298,-0.02834 -3.73512,-0.07824 -8.23407,-0.110952 z m 64.84332,37.974162 v -1.62514 h -1.62514 -1.62515 v -1.6052 -1.60521 l -2.32937,0.0688 c -1.28116,0.0378 -8.05802,0.0776 -15.05969,0.0884 l -12.73031,0.0196 v 3.14195 3.14195 h 16.68483 16.68483 z m -10.18425,-9.64253 v -1.73349 h -1.62514 -1.62515 v -1.73349 -1.73349 l -11.53853,2e-4 -11.53854,1.9e-4 v 3.46691 3.46692 l 13.16368,-1.3e-4 13.16368,-1.3e-4 z m -82.990774,-1.84183 v -3.35864 H 62.812789 51.32842 v 1.73349 1.73349 h -1.733489 -1.733483 v 1.62515 1.62514 H 61.0793 74.297152 Z m 0.920918,-6.82369 2.329375,-0.002 v -3.26741 -3.267412 l -8.233762,0.07129 -8.233756,0.07129 -3.13e-4,1.696435 -3.14e-4,1.696437 -1.625654,-0.0713 -1.625647,-0.0713 5.04e-4,1.7137 5.04e-4,1.7137 7.529843,-0.1408 c 4.141412,-0.0774 8.578061,-0.14167 9.85922,-0.14273 z m 72.233826,-0.12799 c -0.0723,-0.18851 -0.13152,-0.96858 -0.13152,-1.73349 v -1.39074 h -1.62515 -1.62515 v -1.570971 -1.570973 h -8.12573 -8.12573 v 3.304464 3.30446 h 9.88241 c 8.92243,0 9.86962,-0.0333 9.75087,-0.34275 z M 51.111735,98.912619 V 97.17913 h 1.62515 1.625143 v -1.625144 -1.625143 h 1.73349 1.733489 v -1.733489 -1.73349 h 1.625143 1.62515 v -1.625149 -1.625144 h 1.733489 1.73349 v -1.516804 -1.516804 h 1.625143 1.625144 v -1.733489 -1.733489 h 1.625149 1.625144 v -1.625144 -1.625143 h 1.625143 1.62515 v -1.62515 -1.625144 h 1.625144 1.625149 v -1.604289 -1.604296 l -2.221036,-0.143826 c -1.221566,-0.07911 -3.43989,-0.112864 -4.929606,-0.07502 l -2.708577,0.0688 -0.06367,1.570973 -0.06366,1.570974 h -6.599433 -6.599434 v -1.636468 -1.636468 l -4.983991,0.06549 -4.983998,0.06549 2.15e-4,-1.67932 2.15e-4,-1.679313 h 1.73349 1.733489 V 65.75965 64.02616 h 3.250287 3.250293 v -1.577118 -1.577116 l -4.983782,0.08348 -4.983777,0.08348 v -3.273459 -3.273459 l 4.171205,-0.0025 c 2.294166,-0.0012 4.536868,-0.06283 4.983783,-0.136694 l 0.812571,-0.134315 -3.62e-4,1.599328 -3.57e-4,1.599328 h 1.679676 1.679676 l 0.06339,1.684908 0.06339,1.684915 3.295247,-0.05976 3.295247,-0.05976 0.108346,-1.62515 0.108339,-1.625143 h 1.516804 c 1.054538,0 1.525055,-0.08255 1.543886,-0.270855 0.01488,-0.148972 0.03929,-0.857741 0.05416,-1.575044 l 0.02711,-1.304189 4.929613,0.05822 4.929606,0.05822 0.05994,3.196123 0.05994,3.196118 h -4.989574 -4.989574 v 1.625149 1.625141 l -4.929606,0.01906 c -2.711288,0.01045 -5.709681,0.03486 -6.663096,0.05416 l -1.73349,0.03511 -0.06313,1.544599 -0.06313,1.544599 1.796623,0.149131 1.796623,0.149132 -0.07129,1.610733 -0.07129,1.610732 2.888208,-0.0031 c 4.008038,-0.0043 3.863302,0.06168 3.863302,-1.7558 v -1.49153 h 1.625144 1.625143 v -1.733489 -1.733489 h 3.358639 3.358633 v 1.733489 1.733489 h 1.625143 1.62515 l 1.48e-4,1.679314 1.53e-4,1.679319 3.25014,0.02804 3.250139,0.02803 v -8.20768 -8.207959 h 18.201632 c 10.0109,0 18.25496,-0.02435 18.32013,-0.05416 0.0652,-0.02982 0.11173,3.626782 0.10347,8.125729 l -0.0151,8.179897 h 3.47185 3.47186 v 1.733489 1.73349 h 1.64226 1.64227 l -0.0713,1.625647 -0.0713,1.625654 1.67932,-5.04e-4 1.67932,-5.04e-4 v 1.625143 1.625144 h 1.62515 1.62514 v 1.757177 1.757172 l 1.62515,-0.08207 1.62514,-0.08206 v 1.575185 1.575185 h 1.73349 1.73349 v 1.625144 1.62515 h 1.62515 1.62515 v 1.733489 1.733489 h 1.62514 1.62514 l -5e-4,1.570974 -5.1e-4,1.570974 1.62566,-0.07129 1.62565,-0.07129 v 1.733489 1.733489 l 1.62565,0.0713 1.62565,0.0713 -5.1e-4,-3.295698 -5e-4,-3.295702 1.75619,-0.06293 1.75618,-0.06294 -0.0326,-3.196117 -0.0326,-3.196123 0.93087,-0.0025 c 0.51198,-0.0012 1.29709,-0.06291 1.74469,-0.136897 l 0.81381,-0.134512 -0.0554,-18.010568 -0.0554,-18.010558 -1.67932,-0.06329 -1.67932,-0.06329 V 47.76543 44.524254 h -1.73349 -1.73349 V 41.3823 38.240353 h -1.75667 c -1.4892,0 -1.73726,-0.0506 -1.62921,-0.332151 0.0701,-0.182687 0.0666,-0.914001 -0.008,-1.625149 l -0.13514,-1.292993 h -1.59428 -1.59428 v -1.625144 -1.625143 h -1.62514 -1.62514 v -1.733422 -1.733489 h -1.62515 -1.62515 V 26.647813 25.02267 h -1.69748 -1.69748 l 0.0787,-1.62515 0.0786,-1.625144 h -1.7398 -1.7398 v -1.766805 -1.766805 l -3.25029,0.146666 -3.25029,0.146672 v -1.722318 -1.722312 l -4.87544,0.125633 -4.87544,0.125628 v -1.875304 -1.875305 h -18.31 -18.309976 v 1.800398 1.800404 l -4.983777,-0.09383 -4.983782,-0.09382 v 1.760405 1.760405 H 71.18325 67.852966 l -0.134309,0.812572 c -0.07387,0.446915 -0.135384,1.204437 -0.136694,1.683383 l -0.0025,0.870812 -1.625144,-0.08013 -1.625149,-0.08014 5.04e-4,1.701219 5.04e-4,1.701212 -1.625648,-0.07129 -1.625647,-0.07129 v 1.78188 1.781887 l -1.625138,-0.122911 -1.625143,-0.12291 v 1.716779 1.716779 h -1.733489 c -0.953422,0 -1.721944,0.07314 -1.707828,0.162516 0.01414,0.08939 0.01414,0.820699 0,1.625149 l -0.02564,1.462628 h -1.62515 -1.625143 v 1.62515 1.625144 H 49.48653 47.86138 v 3.141947 3.141947 h -1.625143 -1.625144 v 3.358639 3.358633 h -1.733489 -1.733489 v 18.093286 18.093289 h 1.733489 1.733489 v 3.250293 3.250293 h 1.625144 1.62515 v 3.358633 3.358623 h 1.625143 1.625144 z m 3.466979,-16.576485 v -1.625149 h -5.092122 -5.092123 v -1.616383 -1.616376 l 1.766431,-0.06294 1.76643,-0.06294 -0.01986,-1.570974 -0.01986,-1.570974 2.695518,-0.0217 c 1.482535,-0.01193 2.963669,-0.03092 3.291405,-0.0423 l 0.595886,-0.02066 v 1.559305 1.559311 l 5.037953,-1.97e-4 5.037952,-1.91e-4 v 1.73349 1.733483 l -1.029257,0.03289 c -0.566094,0.01808 -1.346186,0.04248 -1.733539,0.05416 l -0.704275,0.02127 4.3e-5,1.570974 4.9e-5,1.570974 h -3.250293 -3.250293 z m 89.491366,0 v -1.625149 h -1.62515 -1.62514 v -1.733483 -1.73349 h 4.87544 4.87543 v -1.483875 -1.483875 l -2.30891,-0.141275 c -1.2699,-0.0777 -4.19516,-0.141268 -6.50058,-0.141268 h -4.19167 l -0.0357,-1.029257 c -0.0196,-0.566093 -0.0386,-1.297407 -0.0422,-1.625144 l -0.007,-0.595886 h -4.83322 c -4.44751,0 -4.83553,-0.03025 -4.86232,-0.379201 -0.016,-0.208564 -0.0404,-0.939866 -0.0542,-1.625119 l -0.0251,-1.245912 1.57098,-3e-5 1.57098,-3.1e-5 V 65.75965 64.02616 h 3.35863 3.35863 v 1.73349 1.733489 h 1.62515 1.62515 v 1.625143 1.62515 h 3.35863 3.35864 v -1.62515 -1.625143 h 1.62514 1.62515 v -1.62515 -1.625143 l -0.59589,-0.0031 c -2.51465,-0.01236 -12.53103,-0.287246 -12.59837,-0.34575 -0.0466,-0.04051 -0.0675,-0.75867 -0.0464,-1.595956 l 0.0384,-1.522343 h -4.99162 -4.99162 v -3.250294 -3.250287 h 4.98378 4.98377 v 1.639684 1.639683 l 1.57098,-0.05152 1.57097,-0.05158 0.0633,1.66216 0.0633,1.662161 h 3.34952 3.34952 V 59.15056 57.52541 h 1.5168 1.5168 v -1.625143 -1.62515 h 5.09213 5.09212 v 3.250293 3.250294 h -4.98378 -4.98378 v 1.625143 1.625147 h 3.35864 3.35863 v 1.733489 1.733489 h 1.62514 1.62515 v 1.625144 1.625143 h -4.98378 -4.98378 v 1.73349 1.733489 h 3.2408 3.2408 l 0.0637,1.552339 0.0637,1.552346 1.67932,-0.04968 1.67932,-0.04968 v 1.747636 1.747636 h -4.98378 -4.98378 v 1.62515 1.625143 h -3.35864 -3.35863 z M 54.36201,46.2579 v -1.73349 h 1.733489 1.733489 v 1.73349 1.733489 H 56.095499 54.36201 Z m 43.120535,0.108345 V 44.741096 H 95.857401 94.232257 V 43.115952 41.490809 H 92.607108 90.981964 V 34.881883 28.27295 h 1.516804 1.516804 v -1.733483 -1.733489 h 1.733483 1.73349 v -1.62515 -1.625143 h 5.092125 5.09212 v 1.747636 1.747635 l 1.65945,-0.04845 1.65946,-0.04845 -0.0484,1.659456 -0.0484,1.659449 h 1.74763 1.74765 v 6.599815 6.599808 l -1.66217,0.06329 -1.66216,0.06329 0.0515,1.570973 0.0515,1.570974 h -1.74802 -1.74803 v 1.625144 1.625149 h -5.09212 -5.092128 z m 6.933955,-8.884132 c 0,-0.738341 0.0226,-0.758402 0.85323,-0.758402 h 0.85323 l 0.0677,-2.383988 0.0677,-2.383988 -0.92092,4.43e-4 c -0.90811,4.3e-4 -0.92092,-0.01014 -0.92092,-0.757959 v -0.758402 h -1.84183 -1.84183 v 0.758402 c 0,0.741587 -0.0194,0.758395 -0.875382,0.758395 h -0.875379 l 0.03258,2.383552 0.03258,2.383545 h 0.842789 c 0.818732,0 0.842792,0.02164 0.842792,0.758402 v 0.758402 h 1.84183 1.84183 z m 42.95553,8.775787 -0.0142,-1.73349 h 1.71476 1.71475 v 1.73349 1.733489 h -1.70055 -1.70054 z M 134.31918,41.382463 V 38.02383 h 3.2503 3.25029 v 3.358633 3.358633 h -3.25029 -3.2503 z M 64.329569,38.13217 v -3.358633 h 3.348611 3.348606 l -0.04414,3.357237 -0.04414,3.357237 -3.304463,0.0012 -3.304463,0.0012 z m 73.060901,54.287492 0.0707,-1.725865 -1.62515,-0.0618 -1.62515,-0.06179 -0.0635,-1.563111 -0.0635,-1.563104 -4.86629,-0.06204 -4.86629,-0.06203 1.8e-4,3.412802 2e-4,3.412809 h 6.48408 6.48408 z m -56.376071,-1.88329 v -3.392466 l -3.28474,0.142179 c -1.806607,0.0782 -4.10796,0.142171 -5.114113,0.142171 h -1.829374 l 0.152329,1.516804 0.152322,1.516804 h -1.755481 -1.75548 v 1.73349 1.733489 h 6.717272 6.717265 z m 3.250294,-9.717042 v -3.358632 h -1.625144 -1.62515 v 1.625143 1.625144 H 79.41761 77.820815 l -0.134309,0.812578 c -0.07387,0.446914 -0.135384,1.175689 -0.136694,1.619499 l -0.0025,0.806928 3.304463,0.0659 c 1.817452,0.03627 3.32884,0.08754 3.358633,0.113984 0.02982,0.02644 0.05416,-1.463292 0.05416,-3.310544 z m 43.337227,1.74206 v -1.633714 h -1.73349 -1.73349 v -1.733489 -1.733489 h -1.62514 -1.62515 v 3.237831 3.237831 l 0.92091,0.07162 c 0.50651,0.03941 2.01789,0.09761 3.35864,0.129372 l 2.43772,0.05773 z M 107.66679,67.384793 V 64.02616 h -4.98378 -4.983774 v 3.358633 3.358639 h 4.983774 4.98378 z m -93.175028,5.200468 v -1.625144 h -1.625143 -1.625144 v -3.358639 -3.358632 h 1.625144 1.625143 V 62.509359 60.77587 h 3.358639 3.358633 v 1.625144 1.625146 h 1.733489 1.73349 v 3.466979 3.466978 h -1.73349 -1.733489 v 1.625144 1.625143 h -3.358633 -3.358639 z m 169.231858,0 v -1.625144 h -1.62514 -1.62515 V 67.493139 64.02616 h 1.62515 1.62514 V 62.401014 60.77587 h 3.46698 3.46698 v 1.625144 1.625146 h 1.62514 1.62515 v 3.358633 3.358639 h -1.62515 -1.62514 v 1.733483 1.733489 h -3.46698 -3.46698 z"
       id="path1" />
  </g>
</svg>
